<svg id="Layer_1" data-name="Layer 1" xmlns="http://www.w3.org/2000/svg" viewBox="0 0 98.45 143.04"><defs><style>.cls-1{fill:#ff4f40;}</style></defs><title>justlogo</title><path class="cls-1" d="M88.91,22.49c-1.75,5-3.55,9.49-5.4,13.67h0C71.43,15.39,54.45.34,54.45.34s2.19,14.14-5.17,42.29C45.11,32,41.32,18.08,38.35,0A176.81,176.81,0,0,0,28,36.94h0c-1.2-4.83-2.33-10.07-3.32-15.81,0,0-13.2,26-14.68,51.89A58.3,58.3,0,0,1,0,65.56H0s.08,16.75,8.32,31.9c4.88,9,12.6,17.35,24.84,21.4.47.15.94.28,1.41.44L41.32,143H64.85L72,117.79a1.49,1.49,0,0,1,.39-.13,42,42,0,0,0,4.49-2h0C116.93,94.67,88.91,22.49,88.91,22.49Zm-12.32,61a21,21,0,0,1-.41,2.71h0a32.94,32.94,0,0,1-6,13.67c-4.59,5.87-12.52,10.44-26,5.72C16.75,96,38.32,59.09,38.32,59.09c.55,2.69,1.15,5.16,1.8,7.43a73.91,73.91,0,0,1,5.64-17.4,88,88,0,0,0,5.92,20.07c4-13.26,2.82-19.91,2.82-19.91S76.1,65.92,76.65,83.35h0A.17.17,0,0,0,76.59,83.48Z"/></svg>