<svg id="Layer_1" data-name="Layer 1" xmlns="http://www.w3.org/2000/svg" viewBox="0 0 497.6 143.04"><defs><style>.cls-1{fill:#ff4f40;}</style></defs><title>logo</title><path class="cls-1" d="M88.91,22.49c-1.75,5-3.55,9.49-5.4,13.67h0C71.43,15.39,54.45.34,54.45.34s2.19,14.14-5.17,42.29C45.11,32,41.32,18.08,38.35,0A176.81,176.81,0,0,0,28,36.94h0c-1.2-4.83-2.33-10.07-3.32-15.81,0,0-13.2,26-14.68,51.89A58.3,58.3,0,0,1,0,65.56H0s.08,16.75,8.32,31.9c4.88,9,12.6,17.35,24.84,21.4.47.15.94.28,1.41.44L41.32,143H64.85L72,117.79a1.49,1.49,0,0,1,.39-.13,42,42,0,0,0,4.49-2h0C116.93,94.67,88.91,22.49,88.91,22.49Zm-12.32,61a21,21,0,0,1-.41,2.71h0a32.94,32.94,0,0,1-6,13.67c-4.59,5.87-12.52,10.44-26,5.72C16.75,96,38.32,59.09,38.32,59.09c.55,2.69,1.15,5.16,1.8,7.43a73.91,73.91,0,0,1,5.64-17.4,88,88,0,0,0,5.92,20.07c4-13.26,2.82-19.91,2.82-19.91S76.1,65.92,76.65,83.35h0A.17.17,0,0,0,76.59,83.48Z"/><path d="M136,26.84h16.2v75.87h39.4V116.3H136Z"/><path d="M247.68,49.2h15.81v67.07H248.15V104.35h-.71c-3.05,7.51-10.12,12.78-20.16,12.78-13.2,0-22.36-9.13-22.36-25.25V49.2h15.81V89.46c0,8.5,5.06,13.87,12.65,13.87,7,0,14.27-5.06,14.27-15.28V49.2Z"/><path d="M279.69,49.2h15.1V60.6h.79c2.79-7.64,9.52-12.26,18.52-12.26S329.65,53,332.23,60.6h.7c3-7.46,10.39-12.26,20.14-12.26,12.32,0,20.95,8,20.95,22.93v45H358.16V73.7c0-8.3-5.06-12.05-11.45-12.05-7.65,0-12.13,5.24-12.13,12.78v41.84h-15.5V73.05c0-6.92-4.59-11.4-11.27-11.4S295.5,67.23,295.5,75.5v40.77H279.69Z"/><path d="M387.14,83.14c0-20.69,12.53-34.8,31.75-34.8,16.52,0,30.66,10.36,30.66,33.89v4.85H402.82c.13,11.48,6.89,18.21,17.12,18.21,6.81,0,12.05-3,14.19-8.63l14.76,1.67c-2.79,11.66-13.54,19.3-29.16,19.3C399.51,117.58,387.14,104.19,387.14,83.14Zm47.28-6.73c-.08-9.13-6.21-15.76-15.29-15.76-9.45,0-15.76,7.2-16.26,15.76Z"/><path d="M496.37,61.44H483.15V96.11c0,6.36,3.18,7.77,7.17,7.77a20.14,20.14,0,0,0,4.62-.6l2.66,12.37a31.73,31.73,0,0,1-9.31,1.56c-11.87.34-21.06-5.84-21-18.47V61.44h-9.52V49.2h9.52V33.13h15.81V49.2h13.22Z"/></svg>